<mxfile host="Electron" agent="Mozilla/5.0 (Macintosh; Intel Mac OS X 10_15_7) AppleWebKit/537.36 (KHTML, like Gecko) draw.io/24.7.17 Chrome/128.0.6613.36 Electron/32.0.1 Safari/537.36" version="24.7.17">
  <diagram name="Page-1" id="C-ZrRFqSbBDgUAMG9lIC">
    <mxGraphModel dx="2510" dy="1287" grid="0" gridSize="10" guides="1" tooltips="1" connect="1" arrows="1" fold="1" page="0" pageScale="1" pageWidth="850" pageHeight="1100" math="0" shadow="0">
      <root>
        <mxCell id="0" />
        <mxCell id="1" parent="0" />
        <mxCell id="dGodLqsFcSV5hrSEIg_d-98" style="edgeStyle=orthogonalEdgeStyle;rounded=0;orthogonalLoop=1;jettySize=auto;html=1;entryX=0;entryY=0.5;entryDx=0;entryDy=0;startArrow=classic;startFill=1;" edge="1" parent="1" source="dGodLqsFcSV5hrSEIg_d-80" target="dGodLqsFcSV5hrSEIg_d-96">
          <mxGeometry relative="1" as="geometry" />
        </mxCell>
        <mxCell id="dGodLqsFcSV5hrSEIg_d-80" value="&lt;font style=&quot;font-size: 30px;&quot;&gt;br-tA&lt;/font&gt;" style="rounded=0;whiteSpace=wrap;html=1;fontFamily=JMH Typewriter;fillColor=#dae8fc;strokeColor=#6c8ebf;" vertex="1" parent="1">
          <mxGeometry x="-396" y="420" width="342" height="78" as="geometry" />
        </mxCell>
        <mxCell id="dGodLqsFcSV5hrSEIg_d-90" style="edgeStyle=orthogonalEdgeStyle;rounded=0;orthogonalLoop=1;jettySize=auto;html=1;entryX=0;entryY=0.5;entryDx=0;entryDy=0;startArrow=classic;startFill=1;exitX=0.5;exitY=1;exitDx=0;exitDy=0;" edge="1" parent="1" source="dGodLqsFcSV5hrSEIg_d-81" target="dGodLqsFcSV5hrSEIg_d-88">
          <mxGeometry relative="1" as="geometry" />
        </mxCell>
        <mxCell id="dGodLqsFcSV5hrSEIg_d-94" style="edgeStyle=orthogonalEdgeStyle;rounded=0;orthogonalLoop=1;jettySize=auto;html=1;entryX=0;entryY=0.5;entryDx=0;entryDy=0;startArrow=classic;startFill=1;" edge="1" parent="1" source="dGodLqsFcSV5hrSEIg_d-81" target="dGodLqsFcSV5hrSEIg_d-93">
          <mxGeometry relative="1" as="geometry" />
        </mxCell>
        <mxCell id="dGodLqsFcSV5hrSEIg_d-81" value="&lt;font style=&quot;font-size: 30px;&quot;&gt;br-phy&lt;/font&gt;" style="rounded=0;whiteSpace=wrap;html=1;fontFamily=JMH Typewriter;fillColor=#dae8fc;strokeColor=#6c8ebf;" vertex="1" parent="1">
          <mxGeometry x="-396" y="602" width="342" height="78" as="geometry" />
        </mxCell>
        <mxCell id="dGodLqsFcSV5hrSEIg_d-86" value="&lt;font style=&quot;font-size: 20px;&quot; face=&quot;JMH Typewriter&quot;&gt;netdev&lt;/font&gt;" style="rounded=0;whiteSpace=wrap;html=1;fillColor=#f5f5f5;fontColor=#333333;strokeColor=#666666;" vertex="1" parent="1">
          <mxGeometry x="-146" y="465" width="92" height="33" as="geometry" />
        </mxCell>
        <mxCell id="dGodLqsFcSV5hrSEIg_d-87" value="&lt;font style=&quot;font-size: 20px;&quot; face=&quot;JMH Typewriter&quot;&gt;netdev&lt;/font&gt;" style="rounded=0;whiteSpace=wrap;html=1;fillColor=#f5f5f5;fontColor=#333333;strokeColor=#666666;" vertex="1" parent="1">
          <mxGeometry x="-146" y="647" width="92" height="33" as="geometry" />
        </mxCell>
        <mxCell id="dGodLqsFcSV5hrSEIg_d-120" style="edgeStyle=orthogonalEdgeStyle;rounded=0;orthogonalLoop=1;jettySize=auto;html=1;entryX=0;entryY=0.5;entryDx=0;entryDy=0;startArrow=classic;startFill=1;" edge="1" parent="1" source="dGodLqsFcSV5hrSEIg_d-88" target="dGodLqsFcSV5hrSEIg_d-114">
          <mxGeometry relative="1" as="geometry" />
        </mxCell>
        <mxCell id="dGodLqsFcSV5hrSEIg_d-88" value="&lt;span style=&quot;font-size: 30px;&quot;&gt;rdma0&lt;/span&gt;" style="rounded=0;whiteSpace=wrap;html=1;fontFamily=JMH Typewriter;fillColor=#f8cecc;strokeColor=#b85450;" vertex="1" parent="1">
          <mxGeometry x="-7" y="763" width="111" height="104" as="geometry" />
        </mxCell>
        <mxCell id="dGodLqsFcSV5hrSEIg_d-89" value="&lt;font style=&quot;font-size: 20px;&quot; face=&quot;JMH Typewriter&quot;&gt;dpdk&lt;/font&gt;" style="rounded=0;whiteSpace=wrap;html=1;fillColor=#f5f5f5;fontColor=#333333;strokeColor=#666666;" vertex="1" parent="1">
          <mxGeometry x="44" y="834" width="60" height="33" as="geometry" />
        </mxCell>
        <mxCell id="dGodLqsFcSV5hrSEIg_d-99" style="edgeStyle=orthogonalEdgeStyle;rounded=0;orthogonalLoop=1;jettySize=auto;html=1;entryX=0;entryY=0.75;entryDx=0;entryDy=0;startArrow=classic;startFill=1;" edge="1" parent="1" source="dGodLqsFcSV5hrSEIg_d-93">
          <mxGeometry relative="1" as="geometry">
            <mxPoint x="160" y="641.5" as="targetPoint" />
          </mxGeometry>
        </mxCell>
        <mxCell id="dGodLqsFcSV5hrSEIg_d-93" value="&lt;span style=&quot;font-size: 30px;&quot;&gt;br-phy&lt;/span&gt;" style="rounded=0;whiteSpace=wrap;html=1;fontFamily=JMH Typewriter;fillColor=#f8cecc;strokeColor=#b85450;" vertex="1" parent="1">
          <mxGeometry x="-7" y="589" width="111" height="104" as="geometry" />
        </mxCell>
        <mxCell id="dGodLqsFcSV5hrSEIg_d-91" value="&lt;font style=&quot;font-size: 20px;&quot; face=&quot;JMH Typewriter&quot;&gt;netdev&lt;/font&gt;" style="rounded=0;whiteSpace=wrap;html=1;fillColor=#f5f5f5;fontColor=#333333;strokeColor=#666666;" vertex="1" parent="1">
          <mxGeometry x="12" y="660" width="92" height="33" as="geometry" />
        </mxCell>
        <mxCell id="dGodLqsFcSV5hrSEIg_d-100" style="edgeStyle=orthogonalEdgeStyle;rounded=0;orthogonalLoop=1;jettySize=auto;html=1;entryX=0;entryY=0.25;entryDx=0;entryDy=0;startArrow=classic;startFill=1;" edge="1" parent="1" source="dGodLqsFcSV5hrSEIg_d-96">
          <mxGeometry relative="1" as="geometry">
            <mxPoint x="160" y="458.5" as="targetPoint" />
          </mxGeometry>
        </mxCell>
        <mxCell id="dGodLqsFcSV5hrSEIg_d-96" value="&lt;span style=&quot;font-size: 30px;&quot;&gt;vx-ta&lt;/span&gt;" style="rounded=0;whiteSpace=wrap;html=1;fontFamily=JMH Typewriter;fillColor=#f8cecc;strokeColor=#b85450;" vertex="1" parent="1">
          <mxGeometry x="-7" y="407" width="111" height="104" as="geometry" />
        </mxCell>
        <mxCell id="dGodLqsFcSV5hrSEIg_d-97" value="&lt;font style=&quot;font-size: 20px;&quot; face=&quot;JMH Typewriter&quot;&gt;vxlan&lt;/font&gt;" style="rounded=0;whiteSpace=wrap;html=1;fillColor=#f5f5f5;fontColor=#333333;strokeColor=#666666;" vertex="1" parent="1">
          <mxGeometry x="12" y="478" width="92" height="33" as="geometry" />
        </mxCell>
        <mxCell id="dGodLqsFcSV5hrSEIg_d-101" value="&lt;font style=&quot;font-size: 30px;&quot;&gt;Kernel Route&lt;/font&gt;&lt;div&gt;&lt;font style=&quot;font-size: 30px;&quot;&gt;Table&lt;/font&gt;&lt;/div&gt;" style="rounded=0;whiteSpace=wrap;html=1;fontFamily=JMH Typewriter;fillColor=#f5f5f5;strokeColor=#666666;fontColor=#333333;" vertex="1" parent="1">
          <mxGeometry x="160" y="406" width="134" height="287" as="geometry" />
        </mxCell>
        <mxCell id="dGodLqsFcSV5hrSEIg_d-106" value="&lt;font face=&quot;JMH Typewriter&quot; style=&quot;font-size: 20px;&quot;&gt;10.0.2.101/24&lt;/font&gt;" style="text;html=1;align=center;verticalAlign=middle;whiteSpace=wrap;rounded=0;fillColor=#FF9933;fontSize=20;" vertex="1" parent="1">
          <mxGeometry x="110" y="657" width="138" height="30" as="geometry" />
        </mxCell>
        <mxCell id="dGodLqsFcSV5hrSEIg_d-114" value="&lt;span style=&quot;font-size: 30px;&quot;&gt;rdma0&lt;/span&gt;" style="rounded=0;whiteSpace=wrap;html=1;fontFamily=JMH Typewriter;fillColor=#f8cecc;strokeColor=#b85450;" vertex="1" parent="1">
          <mxGeometry x="476" y="762" width="111" height="104" as="geometry" />
        </mxCell>
        <mxCell id="dGodLqsFcSV5hrSEIg_d-117" value="&lt;font style=&quot;font-size: 20px;&quot; face=&quot;JMH Typewriter&quot;&gt;dpdk&lt;/font&gt;" style="rounded=0;whiteSpace=wrap;html=1;fillColor=#f5f5f5;fontColor=#333333;strokeColor=#666666;" vertex="1" parent="1">
          <mxGeometry x="527" y="833" width="60" height="33" as="geometry" />
        </mxCell>
        <mxCell id="dGodLqsFcSV5hrSEIg_d-131" style="edgeStyle=orthogonalEdgeStyle;rounded=0;orthogonalLoop=1;jettySize=auto;html=1;entryX=0.5;entryY=0;entryDx=0;entryDy=0;startArrow=classic;startFill=1;" edge="1" parent="1" source="dGodLqsFcSV5hrSEIg_d-130" target="dGodLqsFcSV5hrSEIg_d-114">
          <mxGeometry relative="1" as="geometry" />
        </mxCell>
        <mxCell id="dGodLqsFcSV5hrSEIg_d-130" value="" style="rounded=0;whiteSpace=wrap;html=1;fontFamily=JMH Typewriter;" vertex="1" parent="1">
          <mxGeometry x="430" y="455" width="203" height="238" as="geometry" />
        </mxCell>
        <mxCell id="dGodLqsFcSV5hrSEIg_d-132" value="" style="endArrow=none;html=1;rounded=0;strokeWidth=3;" edge="1" parent="1">
          <mxGeometry width="50" height="50" relative="1" as="geometry">
            <mxPoint x="376" y="920" as="sourcePoint" />
            <mxPoint x="372" y="315" as="targetPoint" />
          </mxGeometry>
        </mxCell>
        <mxCell id="dGodLqsFcSV5hrSEIg_d-133" value="&lt;font face=&quot;JMH Typewriter&quot; style=&quot;font-size: 20px;&quot;&gt;DPDK-based pktgen&lt;/font&gt;" style="text;html=1;align=center;verticalAlign=middle;whiteSpace=wrap;rounded=0;fillColor=none;fontSize=20;" vertex="1" parent="1">
          <mxGeometry x="641" y="950" width="126" height="62" as="geometry" />
        </mxCell>
        <mxCell id="dGodLqsFcSV5hrSEIg_d-134" value="&lt;font face=&quot;JMH Typewriter&quot; style=&quot;font-size: 25px;&quot;&gt;Host A&lt;/font&gt;" style="text;html=1;align=center;verticalAlign=middle;whiteSpace=wrap;rounded=0;fillColor=none;fontSize=20;" vertex="1" parent="1">
          <mxGeometry x="272.62" y="320.5" width="89" height="26" as="geometry" />
        </mxCell>
        <mxCell id="dGodLqsFcSV5hrSEIg_d-135" value="&lt;font face=&quot;JMH Typewriter&quot; style=&quot;font-size: 25px;&quot;&gt;Host B&lt;/font&gt;" style="text;html=1;align=center;verticalAlign=middle;whiteSpace=wrap;rounded=0;fillColor=none;fontSize=20;" vertex="1" parent="1">
          <mxGeometry x="373.5" y="314" width="98" height="39" as="geometry" />
        </mxCell>
        <mxCell id="dGodLqsFcSV5hrSEIg_d-137" value="&lt;font style=&quot;font-size: 20px;&quot;&gt;&lt;b&gt;vxlan tx&lt;/b&gt;&lt;/font&gt;" style="rounded=0;whiteSpace=wrap;html=1;fontFamily=JMH Typewriter;rotation=-90;fillColor=#000099;fontColor=#FFFFFF;" vertex="1" parent="1">
          <mxGeometry x="400" y="558" width="173" height="44" as="geometry" />
        </mxCell>
        <mxCell id="dGodLqsFcSV5hrSEIg_d-138" value="&lt;font style=&quot;font-size: 20px;&quot;&gt;&lt;b&gt;vxlan rx&lt;/b&gt;&lt;/font&gt;" style="rounded=0;whiteSpace=wrap;html=1;fontFamily=JMH Typewriter;rotation=-90;fillColor=#CC0000;fontColor=#FFFFFF;" vertex="1" parent="1">
          <mxGeometry x="487" y="558" width="173" height="44" as="geometry" />
        </mxCell>
        <mxCell id="dGodLqsFcSV5hrSEIg_d-139" value="&lt;font face=&quot;JMH Typewriter&quot; style=&quot;font-size: 20px;&quot;&gt;remote_ip=10.0.2.201&lt;/font&gt;" style="text;html=1;align=center;verticalAlign=middle;whiteSpace=wrap;rounded=0;fillColor=#FF9933;fontSize=20;" vertex="1" parent="1">
          <mxGeometry x="110" y="420" width="213" height="30" as="geometry" />
        </mxCell>
        <mxCell id="dGodLqsFcSV5hrSEIg_d-140" value="&lt;span style=&quot;font-size: 20px;&quot;&gt;Mac_HostB&lt;/span&gt;" style="rounded=0;whiteSpace=wrap;html=1;fontFamily=JMH Typewriter;rotation=0;" vertex="1" parent="1">
          <mxGeometry x="-456" y="53.5" width="131" height="41" as="geometry" />
        </mxCell>
        <mxCell id="dGodLqsFcSV5hrSEIg_d-141" value="&lt;span style=&quot;font-size: 20px;&quot;&gt;Mac_HostA&lt;/span&gt;" style="rounded=0;whiteSpace=wrap;html=1;fontFamily=JMH Typewriter;rotation=0;" vertex="1" parent="1">
          <mxGeometry x="-325" y="53.5" width="131" height="41" as="geometry" />
        </mxCell>
        <mxCell id="dGodLqsFcSV5hrSEIg_d-142" value="&lt;span style=&quot;font-size: 20px;&quot;&gt;10.0.2.201&lt;/span&gt;" style="rounded=0;whiteSpace=wrap;html=1;fontFamily=JMH Typewriter;rotation=0;" vertex="1" parent="1">
          <mxGeometry x="-194" y="53.5" width="91" height="41" as="geometry" />
        </mxCell>
        <mxCell id="dGodLqsFcSV5hrSEIg_d-143" value="&lt;span style=&quot;font-size: 20px;&quot;&gt;10.0.2.101&lt;/span&gt;" style="rounded=0;whiteSpace=wrap;html=1;fontFamily=JMH Typewriter;rotation=0;" vertex="1" parent="1">
          <mxGeometry x="-103" y="53.5" width="91" height="41" as="geometry" />
        </mxCell>
        <mxCell id="dGodLqsFcSV5hrSEIg_d-144" value="&lt;span style=&quot;font-size: 20px;&quot;&gt;100&lt;/span&gt;" style="rounded=0;whiteSpace=wrap;html=1;fontFamily=JMH Typewriter;rotation=0;" vertex="1" parent="1">
          <mxGeometry x="76" y="53.5" width="44" height="41" as="geometry" />
        </mxCell>
        <mxCell id="dGodLqsFcSV5hrSEIg_d-147" value="&lt;span style=&quot;font-size: 20px;&quot;&gt;FakeIP&lt;/span&gt;" style="rounded=0;whiteSpace=wrap;html=1;fontFamily=JMH Typewriter;rotation=0;" vertex="1" parent="1">
          <mxGeometry x="382" y="53.5" width="81" height="41" as="geometry" />
        </mxCell>
        <mxCell id="dGodLqsFcSV5hrSEIg_d-148" value="&lt;span style=&quot;font-size: 20px;&quot;&gt;FakeIP&lt;/span&gt;" style="rounded=0;whiteSpace=wrap;html=1;fontFamily=JMH Typewriter;rotation=0;" vertex="1" parent="1">
          <mxGeometry x="463" y="53.5" width="81" height="41" as="geometry" />
        </mxCell>
        <mxCell id="dGodLqsFcSV5hrSEIg_d-149" value="&lt;span style=&quot;font-size: 20px;&quot;&gt;Payload&lt;/span&gt;" style="rounded=0;whiteSpace=wrap;html=1;fontFamily=JMH Typewriter;rotation=0;" vertex="1" parent="1">
          <mxGeometry x="544" y="53.5" width="89" height="41" as="geometry" />
        </mxCell>
        <mxCell id="dGodLqsFcSV5hrSEIg_d-150" value="&lt;span style=&quot;font-size: 20px;&quot;&gt;4789&lt;/span&gt;" style="rounded=0;whiteSpace=wrap;html=1;fontFamily=JMH Typewriter;rotation=0;" vertex="1" parent="1">
          <mxGeometry x="-12" y="53.5" width="44" height="41" as="geometry" />
        </mxCell>
        <mxCell id="dGodLqsFcSV5hrSEIg_d-151" value="&lt;span style=&quot;font-size: 20px;&quot;&gt;4789&lt;/span&gt;" style="rounded=0;whiteSpace=wrap;html=1;fontFamily=JMH Typewriter;rotation=0;" vertex="1" parent="1">
          <mxGeometry x="32" y="53.5" width="44" height="41" as="geometry" />
        </mxCell>
        <mxCell id="dGodLqsFcSV5hrSEIg_d-152" value="" style="shape=curlyBracket;whiteSpace=wrap;html=1;rounded=1;labelPosition=left;verticalLabelPosition=middle;align=right;verticalAlign=middle;rotation=-90;strokeWidth=3;" vertex="1" parent="1">
          <mxGeometry x="-337.5" y="-21" width="20" height="257" as="geometry" />
        </mxCell>
        <mxCell id="dGodLqsFcSV5hrSEIg_d-153" value="&lt;font style=&quot;font-size: 18px;&quot; face=&quot;JMH Typewriter&quot;&gt;Outer ETH&lt;/font&gt;" style="text;html=1;align=center;verticalAlign=middle;whiteSpace=wrap;rounded=0;fillColor=none;fontSize=18;fontStyle=1" vertex="1" parent="1">
          <mxGeometry x="-387" y="115.5" width="108" height="39" as="geometry" />
        </mxCell>
        <mxCell id="dGodLqsFcSV5hrSEIg_d-154" value="" style="shape=curlyBracket;whiteSpace=wrap;html=1;rounded=1;labelPosition=left;verticalLabelPosition=middle;align=right;verticalAlign=middle;rotation=-90;strokeWidth=3;" vertex="1" parent="1">
          <mxGeometry x="-112.25" y="17.25" width="20" height="180.5" as="geometry" />
        </mxCell>
        <mxCell id="dGodLqsFcSV5hrSEIg_d-155" value="&lt;font style=&quot;font-size: 18px;&quot; face=&quot;JMH Typewriter&quot;&gt;Outer IPv4&lt;/font&gt;" style="text;html=1;align=center;verticalAlign=middle;whiteSpace=wrap;rounded=0;fillColor=none;fontSize=18;fontStyle=1" vertex="1" parent="1">
          <mxGeometry x="-156.25" y="115.5" width="108" height="39" as="geometry" />
        </mxCell>
        <mxCell id="dGodLqsFcSV5hrSEIg_d-156" value="" style="shape=curlyBracket;whiteSpace=wrap;html=1;rounded=1;labelPosition=left;verticalLabelPosition=middle;align=right;verticalAlign=middle;rotation=-90;strokeWidth=3;" vertex="1" parent="1">
          <mxGeometry x="23.36999999999989" y="63.879999999999995" width="20" height="87.25" as="geometry" />
        </mxCell>
        <mxCell id="dGodLqsFcSV5hrSEIg_d-157" value="&lt;font style=&quot;font-size: 18px;&quot; face=&quot;JMH Typewriter&quot;&gt;Outer UDP&lt;/font&gt;" style="text;html=1;align=center;verticalAlign=middle;whiteSpace=wrap;rounded=0;fillColor=none;fontSize=18;fontStyle=1" vertex="1" parent="1">
          <mxGeometry x="-20.63000000000011" y="115.5" width="108" height="39" as="geometry" />
        </mxCell>
        <mxCell id="dGodLqsFcSV5hrSEIg_d-158" value="&lt;font style=&quot;font-size: 18px;&quot; face=&quot;JMH Typewriter&quot;&gt;VxLAN&lt;/font&gt;" style="text;html=1;align=center;verticalAlign=middle;whiteSpace=wrap;rounded=0;fillColor=none;fontSize=18;fontStyle=1" vertex="1" parent="1">
          <mxGeometry x="64" y="24.5" width="68" height="29" as="geometry" />
        </mxCell>
        <mxCell id="dGodLqsFcSV5hrSEIg_d-159" value="" style="shape=curlyBracket;whiteSpace=wrap;html=1;rounded=1;labelPosition=left;verticalLabelPosition=middle;align=right;verticalAlign=middle;rotation=-90;strokeWidth=3;" vertex="1" parent="1">
          <mxGeometry x="241.62" y="-23.37" width="20" height="261.75" as="geometry" />
        </mxCell>
        <mxCell id="dGodLqsFcSV5hrSEIg_d-160" value="&lt;font style=&quot;font-size: 18px;&quot; face=&quot;JMH Typewriter&quot;&gt;Inner ETH&lt;/font&gt;" style="text;html=1;align=center;verticalAlign=middle;whiteSpace=wrap;rounded=0;fillColor=none;fontSize=18;fontStyle=1" vertex="1" parent="1">
          <mxGeometry x="197.62" y="115.5" width="108" height="39" as="geometry" />
        </mxCell>
        <mxCell id="dGodLqsFcSV5hrSEIg_d-161" value="" style="shape=curlyBracket;whiteSpace=wrap;html=1;rounded=1;labelPosition=left;verticalLabelPosition=middle;align=right;verticalAlign=middle;rotation=-90;strokeWidth=3;" vertex="1" parent="1">
          <mxGeometry x="452.8699999999999" y="27.389999999999986" width="20" height="160.24" as="geometry" />
        </mxCell>
        <mxCell id="dGodLqsFcSV5hrSEIg_d-162" value="&lt;font style=&quot;font-size: 18px;&quot; face=&quot;JMH Typewriter&quot;&gt;Inner IPv4&lt;/font&gt;" style="text;html=1;align=center;verticalAlign=middle;whiteSpace=wrap;rounded=0;fillColor=none;fontSize=18;fontStyle=1" vertex="1" parent="1">
          <mxGeometry x="408.8699999999999" y="115.5" width="108" height="39" as="geometry" />
        </mxCell>
        <mxCell id="dGodLqsFcSV5hrSEIg_d-183" style="edgeStyle=orthogonalEdgeStyle;rounded=0;orthogonalLoop=1;jettySize=auto;html=1;entryX=1;entryY=0.5;entryDx=0;entryDy=0;curved=1;strokeColor=#CC0000;strokeWidth=3;exitX=1;exitY=0.5;exitDx=0;exitDy=0;" edge="1" parent="1" source="dGodLqsFcSV5hrSEIg_d-138" target="dGodLqsFcSV5hrSEIg_d-200">
          <mxGeometry relative="1" as="geometry">
            <mxPoint x="763" y="419" as="sourcePoint" />
            <mxPoint x="633" y="214" as="targetPoint" />
            <Array as="points">
              <mxPoint x="574" y="364" />
              <mxPoint x="738" y="364" />
              <mxPoint x="738" y="211" />
            </Array>
          </mxGeometry>
        </mxCell>
        <mxCell id="dGodLqsFcSV5hrSEIg_d-184" style="edgeStyle=orthogonalEdgeStyle;rounded=0;orthogonalLoop=1;jettySize=auto;html=1;entryX=1;entryY=0.5;entryDx=0;entryDy=0;curved=1;exitX=1;exitY=0.5;exitDx=0;exitDy=0;strokeColor=#0000CC;strokeWidth=3;" edge="1" parent="1" source="dGodLqsFcSV5hrSEIg_d-149" target="dGodLqsFcSV5hrSEIg_d-137">
          <mxGeometry relative="1" as="geometry">
            <mxPoint x="683" y="164.5" as="sourcePoint" />
            <mxPoint x="624" y="444.5" as="targetPoint" />
            <Array as="points">
              <mxPoint x="795" y="74" />
              <mxPoint x="795" y="318" />
              <mxPoint x="487" y="318" />
            </Array>
          </mxGeometry>
        </mxCell>
        <mxCell id="dGodLqsFcSV5hrSEIg_d-186" value="&lt;span style=&quot;font-size: 20px;&quot;&gt;FakeMac&lt;/span&gt;" style="rounded=0;whiteSpace=wrap;html=1;fontFamily=JMH Typewriter;rotation=0;" vertex="1" parent="1">
          <mxGeometry x="250" y="53.5" width="131" height="41" as="geometry" />
        </mxCell>
        <mxCell id="dGodLqsFcSV5hrSEIg_d-187" value="&lt;span style=&quot;font-size: 20px;&quot;&gt;FakeMac&lt;/span&gt;" style="rounded=0;whiteSpace=wrap;html=1;fontFamily=JMH Typewriter;rotation=0;" vertex="1" parent="1">
          <mxGeometry x="119" y="53.5" width="131" height="41" as="geometry" />
        </mxCell>
        <mxCell id="dGodLqsFcSV5hrSEIg_d-193" value="&lt;span style=&quot;font-size: 20px;&quot;&gt;Mac_HostB&lt;/span&gt;" style="rounded=0;whiteSpace=wrap;html=1;fontFamily=JMH Typewriter;rotation=0;" vertex="1" parent="1">
          <mxGeometry x="-325" y="190.87" width="131" height="41" as="geometry" />
        </mxCell>
        <mxCell id="dGodLqsFcSV5hrSEIg_d-194" value="&lt;span style=&quot;font-size: 20px;&quot;&gt;Mac_HostA&lt;/span&gt;" style="rounded=0;whiteSpace=wrap;html=1;fontFamily=JMH Typewriter;rotation=0;" vertex="1" parent="1">
          <mxGeometry x="-456" y="190.87" width="131" height="41" as="geometry" />
        </mxCell>
        <mxCell id="dGodLqsFcSV5hrSEIg_d-195" value="&lt;span style=&quot;font-size: 20px;&quot;&gt;10.0.2.201&lt;/span&gt;" style="rounded=0;whiteSpace=wrap;html=1;fontFamily=JMH Typewriter;rotation=0;" vertex="1" parent="1">
          <mxGeometry x="-103" y="190.87" width="91" height="41" as="geometry" />
        </mxCell>
        <mxCell id="dGodLqsFcSV5hrSEIg_d-196" value="&lt;span style=&quot;font-size: 20px;&quot;&gt;10.0.2.101&lt;/span&gt;" style="rounded=0;whiteSpace=wrap;html=1;fontFamily=JMH Typewriter;rotation=0;" vertex="1" parent="1">
          <mxGeometry x="-194" y="190.87" width="91" height="41" as="geometry" />
        </mxCell>
        <mxCell id="dGodLqsFcSV5hrSEIg_d-197" value="&lt;span style=&quot;font-size: 20px;&quot;&gt;100&lt;/span&gt;" style="rounded=0;whiteSpace=wrap;html=1;fontFamily=JMH Typewriter;rotation=0;" vertex="1" parent="1">
          <mxGeometry x="76" y="190.87" width="44" height="41" as="geometry" />
        </mxCell>
        <mxCell id="dGodLqsFcSV5hrSEIg_d-198" value="&lt;span style=&quot;font-size: 20px;&quot;&gt;FakeIP&lt;/span&gt;" style="rounded=0;whiteSpace=wrap;html=1;fontFamily=JMH Typewriter;rotation=0;" vertex="1" parent="1">
          <mxGeometry x="382" y="190.87" width="81" height="41" as="geometry" />
        </mxCell>
        <mxCell id="dGodLqsFcSV5hrSEIg_d-199" value="&lt;span style=&quot;font-size: 20px;&quot;&gt;FakeIP&lt;/span&gt;" style="rounded=0;whiteSpace=wrap;html=1;fontFamily=JMH Typewriter;rotation=0;" vertex="1" parent="1">
          <mxGeometry x="463" y="190.87" width="81" height="41" as="geometry" />
        </mxCell>
        <mxCell id="dGodLqsFcSV5hrSEIg_d-200" value="&lt;span style=&quot;font-size: 20px;&quot;&gt;Payload&lt;/span&gt;" style="rounded=0;whiteSpace=wrap;html=1;fontFamily=JMH Typewriter;rotation=0;" vertex="1" parent="1">
          <mxGeometry x="544" y="190.87" width="89" height="41" as="geometry" />
        </mxCell>
        <mxCell id="dGodLqsFcSV5hrSEIg_d-201" value="&lt;span style=&quot;font-size: 20px;&quot;&gt;4789&lt;/span&gt;" style="rounded=0;whiteSpace=wrap;html=1;fontFamily=JMH Typewriter;rotation=0;" vertex="1" parent="1">
          <mxGeometry x="-12" y="190.87" width="44" height="41" as="geometry" />
        </mxCell>
        <mxCell id="dGodLqsFcSV5hrSEIg_d-202" value="&lt;span style=&quot;font-size: 20px;&quot;&gt;4789&lt;/span&gt;" style="rounded=0;whiteSpace=wrap;html=1;fontFamily=JMH Typewriter;rotation=0;" vertex="1" parent="1">
          <mxGeometry x="32" y="190.87" width="44" height="41" as="geometry" />
        </mxCell>
        <mxCell id="dGodLqsFcSV5hrSEIg_d-203" value="" style="shape=curlyBracket;whiteSpace=wrap;html=1;rounded=1;labelPosition=left;verticalLabelPosition=middle;align=right;verticalAlign=middle;rotation=-90;strokeWidth=3;" vertex="1" parent="1">
          <mxGeometry x="-337.5" y="116.37" width="20" height="257" as="geometry" />
        </mxCell>
        <mxCell id="dGodLqsFcSV5hrSEIg_d-204" value="&lt;font style=&quot;font-size: 18px;&quot; face=&quot;JMH Typewriter&quot;&gt;Outer ETH&lt;/font&gt;" style="text;html=1;align=center;verticalAlign=middle;whiteSpace=wrap;rounded=0;fillColor=none;fontSize=18;fontStyle=1" vertex="1" parent="1">
          <mxGeometry x="-387" y="252.87" width="108" height="39" as="geometry" />
        </mxCell>
        <mxCell id="dGodLqsFcSV5hrSEIg_d-205" value="" style="shape=curlyBracket;whiteSpace=wrap;html=1;rounded=1;labelPosition=left;verticalLabelPosition=middle;align=right;verticalAlign=middle;rotation=-90;strokeWidth=3;" vertex="1" parent="1">
          <mxGeometry x="-112.25" y="154.62" width="20" height="180.5" as="geometry" />
        </mxCell>
        <mxCell id="dGodLqsFcSV5hrSEIg_d-206" value="&lt;font style=&quot;font-size: 18px;&quot; face=&quot;JMH Typewriter&quot;&gt;Outer IPv4&lt;/font&gt;" style="text;html=1;align=center;verticalAlign=middle;whiteSpace=wrap;rounded=0;fillColor=none;fontSize=18;fontStyle=1" vertex="1" parent="1">
          <mxGeometry x="-156.25" y="252.87" width="108" height="39" as="geometry" />
        </mxCell>
        <mxCell id="dGodLqsFcSV5hrSEIg_d-207" value="" style="shape=curlyBracket;whiteSpace=wrap;html=1;rounded=1;labelPosition=left;verticalLabelPosition=middle;align=right;verticalAlign=middle;rotation=-90;strokeWidth=3;" vertex="1" parent="1">
          <mxGeometry x="23.36999999999989" y="201.25" width="20" height="87.25" as="geometry" />
        </mxCell>
        <mxCell id="dGodLqsFcSV5hrSEIg_d-208" value="&lt;font style=&quot;font-size: 18px;&quot; face=&quot;JMH Typewriter&quot;&gt;Outer UDP&lt;/font&gt;" style="text;html=1;align=center;verticalAlign=middle;whiteSpace=wrap;rounded=0;fillColor=none;fontSize=18;fontStyle=1" vertex="1" parent="1">
          <mxGeometry x="-20.63000000000011" y="252.87" width="108" height="39" as="geometry" />
        </mxCell>
        <mxCell id="dGodLqsFcSV5hrSEIg_d-209" value="" style="shape=curlyBracket;whiteSpace=wrap;html=1;rounded=1;labelPosition=left;verticalLabelPosition=middle;align=right;verticalAlign=middle;rotation=-90;strokeWidth=3;" vertex="1" parent="1">
          <mxGeometry x="241.62" y="114" width="20" height="261.75" as="geometry" />
        </mxCell>
        <mxCell id="dGodLqsFcSV5hrSEIg_d-210" value="&lt;font style=&quot;font-size: 18px;&quot; face=&quot;JMH Typewriter&quot;&gt;Inner ETH&lt;/font&gt;" style="text;html=1;align=center;verticalAlign=middle;whiteSpace=wrap;rounded=0;fillColor=none;fontSize=18;fontStyle=1" vertex="1" parent="1">
          <mxGeometry x="197.62" y="252.87" width="108" height="39" as="geometry" />
        </mxCell>
        <mxCell id="dGodLqsFcSV5hrSEIg_d-211" value="" style="shape=curlyBracket;whiteSpace=wrap;html=1;rounded=1;labelPosition=left;verticalLabelPosition=middle;align=right;verticalAlign=middle;rotation=-90;strokeWidth=3;" vertex="1" parent="1">
          <mxGeometry x="452.8699999999999" y="164.76" width="20" height="160.24" as="geometry" />
        </mxCell>
        <mxCell id="dGodLqsFcSV5hrSEIg_d-212" value="&lt;font style=&quot;font-size: 18px;&quot; face=&quot;JMH Typewriter&quot;&gt;Inner IPv4&lt;/font&gt;" style="text;html=1;align=center;verticalAlign=middle;whiteSpace=wrap;rounded=0;fillColor=none;fontSize=18;fontStyle=1" vertex="1" parent="1">
          <mxGeometry x="408.8699999999999" y="252.87" width="108" height="39" as="geometry" />
        </mxCell>
        <mxCell id="dGodLqsFcSV5hrSEIg_d-213" value="&lt;span style=&quot;font-size: 20px;&quot;&gt;FakeMac&lt;/span&gt;" style="rounded=0;whiteSpace=wrap;html=1;fontFamily=JMH Typewriter;rotation=0;" vertex="1" parent="1">
          <mxGeometry x="250" y="190.87" width="131" height="41" as="geometry" />
        </mxCell>
        <mxCell id="dGodLqsFcSV5hrSEIg_d-214" value="&lt;span style=&quot;font-size: 20px;&quot;&gt;FakeMac&lt;/span&gt;" style="rounded=0;whiteSpace=wrap;html=1;fontFamily=JMH Typewriter;rotation=0;" vertex="1" parent="1">
          <mxGeometry x="119" y="190.87" width="131" height="41" as="geometry" />
        </mxCell>
        <mxCell id="dGodLqsFcSV5hrSEIg_d-215" value="" style="shape=stencil(fZbdcgIhDIWfZm8zQAg/17Z9j85U606tdqz9e/tmZ0c0uJ47xP0I5JwEBl59bp8/1kNwn6fj4W39M76ctgM/DCGM++36OJ50NPDjwKvN4bh+PR6+9i/z74/n6ctp9H74nlb4nbmSKZeJCu5vngmZ6jzzNAO7cX8FVKEsBuBKrgKg9oAE8gkCbLeUhEoEQKSUDZDLeWYRKIl8MEDRmHwfyBrBG6Amyu4+kDxxMoB3jhwgYu7TVAsVkFcWCs4CTBEoF4RctKeOxHIf8IXYpikHikAIf+MNUW94AGSSaoAoFIE3AlOyeWU+p2E5S9yfQZcQILVuQOwZdJNoS9Ls3wA5u2XZTIHECqeJ9kDpSaauRiNVcAY1QhdBzeLBli5WazpkSsBLV25uRaqWRyFawTQzRRIQYirJzq5atkBqLfouwqUxLBepthWb10vrWZY6UOAeyKCCtDV625mm9gmUC4Wc3VLJMMIE1BsA2FW9JraVlQB7n3c9oMKhCLEvIM1zBPZ25/umNQ1tVEC2G+fFCC8g398O2hNQuQlVu752DBfA+q0ptnqO5JFmeuIuo9DY7KjY71UxdJV4EntifPWorW++R/dC4t7V3DlIB5cHx2bc7eb3yvX//QNFp+bHDT/+Aw==);lineShape=1;strokeColor=default;" vertex="1" parent="1">
          <mxGeometry x="204.77993473745983" y="938.6255207641989" width="7.7875662868586915" height="7.77539369392874" as="geometry" />
        </mxCell>
        <mxCell id="dGodLqsFcSV5hrSEIg_d-216" value="" style="shape=stencil(fZbdcgIhDIWfZm8zQAg/17Z9j85U606tdqz9e/tmZ0c0uJ47xP0I5JwEBl59bp8/1kNwn6fj4W39M76ctgM/DCGM++36OJ50NPDjwKvN4bh+PR6+9i/z74/n6ctp9H74nlb4nbmSKZeJCu5vngmZ6jzzNAO7cX8FVKEsBuBKrgKg9oAE8gkCbLeUhEoEQKSUDZDLeWYRKIl8MEDRmHwfyBrBG6Amyu4+kDxxMoB3jhwgYu7TVAsVkFcWCs4CTBEoF4RctKeOxHIf8IXYpikHikAIf+MNUW94AGSSaoAoFIE3AlOyeWU+p2E5S9yfQZcQILVuQOwZdJNoS9Ls3wA5u2XZTIHECqeJ9kDpSaauRiNVcAY1QhdBzeLBli5WazpkSsBLV25uRaqWRyFawTQzRRIQYirJzq5atkBqLfouwqUxLBepthWb10vrWZY6UOAeyKCCtDV625mm9gmUC4Wc3VLJMMIE1BsA2FW9JraVlQB7n3c9oMKhCLEvIM1zBPZ25/umNQ1tVEC2G+fFCC8g398O2hNQuQlVu752DBfA+q0ptnqO5JFmeuIuo9DY7KjY71UxdJV4EntifPWorW++R/dC4t7V3DlIB5cHx2bc7eb3yvX//QNFp+bHDT/+Aw==);lineShape=1;strokeColor=default;" vertex="1" parent="1">
          <mxGeometry x="799.7799347374598" y="778.6255207641989" width="7.7875662868586915" height="7.77539369392874" as="geometry" />
        </mxCell>
        <mxCell id="dGodLqsFcSV5hrSEIg_d-217" value="&lt;font face=&quot;JMH Typewriter&quot; style=&quot;font-size: 20px;&quot;&gt;PipeTune&lt;/font&gt;" style="text;html=1;align=center;verticalAlign=middle;whiteSpace=wrap;rounded=0;fillColor=none;fontSize=20;" vertex="1" parent="1">
          <mxGeometry x="641" y="631" width="126" height="62" as="geometry" />
        </mxCell>
      </root>
    </mxGraphModel>
  </diagram>
</mxfile>
